<svg width="235" height="326" viewBox="0 0 235 326" fill="none" xmlns="http://www.w3.org/2000/svg">
<path d="M224.75 319.937C220.966 322.53 214.343 322.549 204.157 317.911C194.231 313.391 182.14 304.971 168.659 293.14C141.742 269.519 109.972 232.917 79.8241 188.916C49.6765 144.915 27.014 102.072 14.7051 68.4425C8.53986 51.5984 5.05352 37.2833 4.42253 26.3951C3.77497 15.221 6.18358 9.05202 9.96779 6.45924C13.752 3.86646 20.3745 3.84771 30.561 8.48609C40.4868 13.0058 52.5775 21.4256 66.0593 33.2567C92.9759 56.8775 124.746 93.4801 154.894 137.481C185.041 181.482 207.704 224.325 220.013 257.954C226.178 274.798 229.664 289.113 230.295 300.002C230.943 311.176 228.534 317.345 224.75 319.937Z" stroke="url(#paint0_linear)" stroke-width="8"/>
<defs>
<linearGradient id="paint0_linear" x1="76.5243" y1="191.177" x2="139.5" y2="149" gradientUnits="userSpaceOnUse">
<stop stop-color="#5F37FF"/>
<stop offset="1" stop-color="#FF0000" stop-opacity="0"/>
</linearGradient>
</defs>
</svg>
