<?xml version="1.0" standalone="no"?>
<!DOCTYPE svg PUBLIC "-//W3C//DTD SVG 20010904//EN"
 "http://www.w3.org/TR/2001/REC-SVG-20010904/DTD/svg10.dtd">
<svg version="1.0" xmlns="http://www.w3.org/2000/svg"
 width="359.000000pt" height="359.000000pt" viewBox="0 0 359.000000 359.000000"
 preserveAspectRatio="xMidYMid meet">
<metadata>
Created by potrace 1.14, written by Peter Selinger 2001-2017
</metadata>
<g transform="translate(0.000000,359.000000) scale(0.100000,-0.100000)"
fill="#000000" stroke="none">
<path d="M1420 3180 c-566 -100 -1014 -509 -1159 -1060 -11 -41 -23 -93 -26
-115 -3 -23 -8 -52 -11 -65 -10 -45 -12 -284 -3 -350 16 -113 19 -133 35 -192
37 -144 121 -338 186 -432 198 -285 427 -466 732 -580 38 -14 78 -28 90 -31
11 -2 39 -9 61 -14 22 -6 60 -13 85 -17 25 -3 62 -9 83 -14 20 -4 106 -7 190
-5 132 2 194 9 339 40 64 13 211 71 306 120 391 203 665 563 751 985 26 128
31 173 32 282 6 562 -313 1080 -811 1320 -124 60 -262 106 -370 123 -25 4 -54
10 -65 12 -11 3 -92 7 -180 9 -122 2 -185 -2 -265 -16z m166 -767 c80 -27 123
-63 150 -128 50 -120 -23 -409 -133 -526 -76 -81 -180 -121 -328 -128 -33 -1
-62 -4 -63 -6 -4 -3 -108 -406 -118 -455 -3 -14 -11 -36 -17 -50 -12 -24 -16
-25 -119 -28 -99 -2 -108 -1 -118 18 -8 16 3 72 54 272 181 706 206 807 206
817 0 6 -17 11 -40 11 -57 0 -63 19 -39 115 11 43 28 84 37 91 20 15 482 12
528 -3z m675 0 c10 -10 -1 -65 -50 -260 -35 -136 -65 -259 -67 -272 -3 -14 -7
-28 -10 -33 -3 -5 -7 -19 -10 -32 -2 -13 -31 -130 -64 -259 -33 -129 -60 -237
-60 -241 0 -3 85 -6 190 -6 174 0 190 -1 199 -19 14 -26 -20 -167 -45 -186
-15 -12 -76 -14 -320 -15 -263 0 -303 2 -315 16 -11 13 -7 38 21 152 19 76 35
139 35 142 1 3 5 19 10 35 33 125 135 525 139 545 4 21 43 176 97 382 16 61
26 66 138 64 64 -1 104 -5 112 -13z"/>
<path d="M1351 2176 c-6 -17 -26 -96 -46 -176 -20 -80 -38 -153 -41 -162 -4
-14 2 -16 43 -13 26 2 56 4 65 4 20 1 84 54 98 82 17 31 40 132 46 200 6 63 5
68 -18 83 -15 9 -44 15 -80 15 -55 -1 -57 -2 -67 -33z"/>
</g>
</svg>
